<svg width="1026" height="584" viewBox="0 0 1026 584" fill="none" xmlns="http://www.w3.org/2000/svg">
<g clip-path="url(#clip0_2384_1710)">
<rect x="-0.000244141" width="1025.99" height="584" rx="25" fill="url(#paint0_linear_2384_1710)"/>
<g filter="url(#filter0_f_2384_1710)">
<path d="M532 -154.932C532 -175.642 904.007 -348.94 1090.01 -433L980.617 -36.6533H1587.54L1891 76.7162L1800.01 432L1423.45 292.743L810.742 241.414C717.828 117.928 532 -134.222 532 -154.932Z" fill="url(#paint1_linear_2384_1710)"/>
</g>
<g filter="url(#filter1_f_2384_1710)">
<path d="M234.25 285.158C258.252 284.922 461.755 623.054 560.507 792.149L100.364 696.639L104.692 1251.5L-24.5387 1530.22L-436.958 1451.08L-278.246 1105.23L-223.125 544.493C-80.6681 458.146 210.247 285.393 234.25 285.158Z" fill="url(#paint2_linear_2384_1710)"/>
</g>
<rect width="1025.99" height="584" rx="25" fill="#3A3A3A" fill-opacity="0.1"/>
<path d="M445.632 349C442.232 349 439.382 348.15 437.082 346.45C434.882 344.65 433.332 342.25 432.432 339.25C431.632 336.45 431.132 333.4 430.932 330.1C430.832 326.8 430.782 322.15 430.782 316.15C430.782 310.55 430.532 306.4 430.032 303.7C429.632 301 428.582 299.65 426.882 299.65C424.882 299.65 423.482 300.55 422.682 302.35C421.882 304.05 421.482 306.5 421.482 309.7C421.482 312.6 421.882 317.15 422.682 323.35C422.782 324.55 422.982 326.45 423.282 329.05C423.582 331.65 423.732 333.8 423.732 335.5C423.732 340.3 422.632 343.7 420.432 345.7C418.332 347.7 415.232 348.7 411.132 348.7C406.232 348.7 401.982 346.05 398.382 340.75C394.782 335.45 392.082 328.85 390.282 320.95C388.482 312.95 387.582 305.1 387.582 297.4C387.582 288.2 388.882 279.65 391.482 271.75C394.182 263.85 398.182 257.5 403.482 252.7C408.882 247.9 415.382 245.5 422.982 245.5C429.382 245.5 434.482 247.5 438.282 251.5C442.082 255.4 444.632 260.15 445.932 265.75C447.032 260.25 449.482 255.5 453.282 251.5C457.182 247.5 462.282 245.5 468.582 245.5C476.082 245.5 482.482 247.85 487.782 252.55C493.182 257.15 497.282 263.6 500.082 271.9C502.982 280.2 504.432 289.8 504.432 300.7C504.432 307.8 503.432 315.15 501.432 322.75C499.432 330.25 496.632 336.5 493.032 341.5C489.432 346.5 485.332 349 480.732 349C476.532 349 473.332 347.95 471.132 345.85C468.932 343.75 467.832 340.3 467.832 335.5C467.832 333.3 468.232 329.2 469.032 323.2C469.832 316.8 470.232 312.2 470.232 309.4C470.232 302.9 468.482 299.65 464.982 299.65C463.182 299.65 462.032 301.1 461.532 304C461.132 306.9 460.882 311.6 460.782 318.1C460.782 323 460.682 327.1 460.482 330.4C460.282 333.6 459.832 336.55 459.132 339.25C458.332 342.15 456.732 344.5 454.332 346.3C452.032 348.1 449.132 349 445.632 349ZM563.432 349C552.232 349 542.632 346.5 534.632 341.5C526.632 336.4 520.582 329.65 516.482 321.25C512.482 312.75 510.482 303.5 510.482 293.5C510.482 279.7 512.082 268 515.282 258.4C518.482 248.8 524.732 244 534.032 244C541.332 244 546.582 246.15 549.782 250.45C552.982 254.75 554.582 260.05 554.582 266.35C554.582 270.55 554.182 275.45 553.382 281.05C552.582 286.45 552.182 291 552.182 294.7C552.182 299.6 553.032 303.8 554.732 307.3C556.432 310.8 559.332 312.55 563.432 312.55C567.632 312.55 570.532 310.8 572.132 307.3C573.832 303.8 574.682 299.6 574.682 294.7C574.682 291 574.282 286.45 573.482 281.05C572.682 275.45 572.282 270.55 572.282 266.35C572.282 260.05 573.882 254.75 577.082 250.45C580.282 246.15 585.532 244 592.832 244C602.132 244 608.382 248.8 611.582 258.4C614.782 268 616.382 279.7 616.382 293.5C616.382 303.5 614.332 312.75 610.232 321.25C606.232 329.65 600.232 336.4 592.232 341.5C584.232 346.5 574.632 349 563.432 349ZM664.92 349C656.32 349 649.07 348.55 643.17 347.65C637.27 346.75 632.32 344.65 628.32 341.35C624.32 338.05 622.32 333 622.32 326.2C622.32 321.9 624.27 317.4 628.17 312.7C632.07 307.9 636.52 303.55 641.52 299.65C646.52 295.65 652.72 291.05 660.12 285.85C657.42 286.15 654.52 286.3 651.42 286.3C642.52 286.3 634.92 284.85 628.62 281.95C622.42 278.95 619.32 274 619.32 267.1C619.32 259.3 622.87 253.6 629.97 250C637.17 246.3 646.67 244.45 658.47 244.45C668.47 244.45 677.12 245.15 684.42 246.55C691.82 247.85 697.82 250.55 702.42 254.65C707.02 258.65 709.32 264.4 709.32 271.9C709.32 280 705.97 287.55 699.27 294.55C692.67 301.55 684.32 307.9 674.22 313.6C681.62 313.8 687.72 314.3 692.52 315.1C697.32 315.9 701.27 317.55 704.37 320.05C707.47 322.55 709.02 326.25 709.02 331.15C709.02 336.65 706.77 340.7 702.27 343.3C697.87 345.9 692.67 347.5 686.67 348.1C680.77 348.7 673.52 349 664.92 349ZM762.549 321.85C767.649 322.45 771.599 323.75 774.399 325.75C777.299 327.65 778.749 330.7 778.749 334.9C778.749 339.1 777.249 342.2 774.249 344.2C771.349 346.2 767.849 347.45 763.749 347.95C759.649 348.35 754.349 348.55 747.849 348.55C741.449 348.55 736.199 348.35 732.099 347.95C727.999 347.45 724.499 346.2 721.599 344.2C718.699 342.2 717.249 339.1 717.249 334.9C717.249 330.8 718.599 327.8 721.299 325.9C724.099 323.9 727.899 322.55 732.699 321.85C732.199 316.05 731.949 307.75 731.949 296.95C731.949 287.25 732.149 279.45 732.549 273.55C726.749 272.95 722.199 271.55 718.899 269.35C715.599 267.15 713.949 263.7 713.949 259C713.949 254.4 715.549 251 718.749 248.8C721.949 246.6 725.799 245.25 730.299 244.75C734.799 244.25 740.599 244 747.699 244C754.799 244 760.599 244.25 765.099 244.75C769.599 245.25 773.449 246.6 776.649 248.8C779.949 251 781.599 254.4 781.599 259C781.599 263.7 779.899 267.15 776.499 269.35C773.199 271.55 768.599 272.95 762.699 273.55C763.199 279.05 763.449 286.85 763.449 296.95C763.449 306.65 763.149 314.95 762.549 321.85ZM845.046 297.55C853.946 301.65 861.496 306.6 867.696 312.4C873.996 318.2 877.146 324.5 877.146 331.3C877.146 337.3 875.496 341.75 872.196 344.65C868.896 347.55 864.846 349 860.046 349C853.146 349 846.646 345.85 840.546 339.55C834.546 333.15 828.746 324.8 823.146 314.5C823.146 321.6 822.746 327.55 821.946 332.35C821.246 337.15 819.646 341.15 817.146 344.35C814.646 347.45 810.896 349 805.896 349C800.696 349 796.846 347.05 794.346 343.15C791.946 339.25 790.446 334.55 789.846 329.05C789.346 323.55 789.096 316.35 789.096 307.45C789.096 301.15 789.146 293.7 789.246 285.1C789.446 276.4 789.646 271 789.846 268.9C790.046 261.4 791.596 255.4 794.496 250.9C797.396 246.3 801.496 244 806.796 244C812.896 244 817.146 246.6 819.546 251.8C822.046 257 823.296 264.95 823.296 275.65V280.15C828.396 270.95 834.296 262.7 840.996 255.4C847.696 248.1 854.396 244.45 861.096 244.45C865.796 244.45 869.646 246.25 872.646 249.85C875.746 253.35 877.296 257.7 877.296 262.9C877.296 269.9 874.296 276.6 868.296 283C862.396 289.3 854.646 294.15 845.046 297.55Z" fill="#ECECEC"/>
<path d="M204.493 354.792C187.488 371.96 158.686 371.891 150.643 349.011C149.068 344.531 147.809 339.925 146.883 335.225C143.102 316.035 145.042 296.145 152.459 278.068C159.876 259.992 172.436 244.542 188.551 233.672C204.666 222.802 223.612 217 242.994 217C262.375 217 281.321 222.802 297.435 233.672C313.551 244.542 326.111 259.992 333.528 278.069C340.944 296.145 342.885 316.035 339.104 335.225C338.178 339.925 336.919 344.531 335.344 349.011C327.3 371.891 298.499 371.96 281.493 354.792L255.243 328.292C252.735 325.76 252.994 321.584 253.686 318.073C254.106 315.938 253.89 313.725 253.065 311.714C252.24 309.703 250.843 307.984 249.05 306.775C247.257 305.566 245.15 304.921 242.994 304.921C240.838 304.921 238.73 305.566 236.937 306.775C235.144 307.984 233.747 309.703 232.922 311.714C232.097 313.725 231.881 315.938 232.302 318.073C232.993 321.584 233.252 325.76 230.744 328.292L204.493 354.792Z" fill="#ECECEC"/>
</g>
<defs>
<filter id="filter0_f_2384_1710" x="232" y="-733" width="1959" height="1465" filterUnits="userSpaceOnUse" color-interpolation-filters="sRGB">
<feFlood flood-opacity="0" result="BackgroundImageFix"/>
<feBlend mode="normal" in="SourceGraphic" in2="BackgroundImageFix" result="shape"/>
<feGaussianBlur stdDeviation="150" result="effect1_foregroundBlur_2384_1710"/>
</filter>
<filter id="filter1_f_2384_1710" x="-736.958" y="-14.8428" width="1597.46" height="1845.07" filterUnits="userSpaceOnUse" color-interpolation-filters="sRGB">
<feFlood flood-opacity="0" result="BackgroundImageFix"/>
<feBlend mode="normal" in="SourceGraphic" in2="BackgroundImageFix" result="shape"/>
<feGaussianBlur stdDeviation="150" result="effect1_foregroundBlur_2384_1710"/>
</filter>
<linearGradient id="paint0_linear_2384_1710" x1="1025.99" y1="-173.375" x2="573.782" y2="1044.75" gradientUnits="userSpaceOnUse">
<stop stop-color="#FF00E6"/>
<stop offset="0.505208" stop-color="#9F62FF"/>
<stop offset="1" stop-color="#0085FF"/>
</linearGradient>
<linearGradient id="paint1_linear_2384_1710" x1="1829.15" y1="-147.764" x2="623.036" y2="-147.764" gradientUnits="userSpaceOnUse">
<stop stop-color="#64C2DB"/>
<stop offset="0.510417" stop-color="#7476ED"/>
<stop offset="1" stop-color="#E56F8C"/>
</linearGradient>
<linearGradient id="paint2_linear_2384_1710" x1="235.19" y1="1471.13" x2="224.387" y2="368.488" gradientUnits="userSpaceOnUse">
<stop stop-color="#64C2DB"/>
<stop offset="0.510417" stop-color="#7476ED"/>
<stop offset="1" stop-color="#E56F8C"/>
</linearGradient>
<clipPath id="clip0_2384_1710">
<rect width="1026" height="584" rx="25" fill="white"/>
</clipPath>
</defs>
</svg>
